<svg cache-id="138c69a6b9454bb98331795bb680b261" id="eBLkTCrf2Pu1" xmlns="http://www.w3.org/2000/svg" xmlns:xlink="http://www.w3.org/1999/xlink" viewBox="0 0 300 300" shape-rendering="geometricPrecision" text-rendering="geometricPrecision" style="background-color:transparent"><path d="M162.082552,38.411529h37.411842l-20.96334,92.119936c1.978805,71.994343-51.600285,107.879049-90.509081,103.452751-24.441967-2.780539-68.666719-43.354413-67.610678-51.212497q.466443-3.470841,25.313727-22.154937c22.377839,25.934685,35.275437,30.925605,58.343003,31.132012q33.357712.298482,39.697458-75.840117l18.317069-77.497148Z" transform="translate(44.425559 12.742353)" fill="#ed513b" stroke="#ed513b" stroke-width="0.6"/><path d="M46.421193,38.33788h132.109861v126.474751c1.978805,71.994343-33.967916,71.414605-73.127581,71.329358-35.887017-.078123-77.002602-48.774521-75.862424-52.118009q.857188-2.513638,26.7111-23.407198c22.377839,25.934685,26.083758,35.158571,49.151324,35.364978c33.357711.298482,37.604437-17.588908,38.36201-56.344202.249845-12.781351.273509-52.934888,0-68.931736h-97.34429v-32.367942Z" transform="translate(44.425559 12.742353)" fill="#ebe8d9" stroke="#ed513b" stroke-width="0.6"/></svg>
